#!OML:ASF X:\für Bonn\!DataBase\2005_08_11_Bastian_Final\c3d\Bastian.ASF
:FULLY-SPECIFIED
:DEGREES
32
root -7.08746 16.7655 2.49464 166.445 -14.3112 -175.219
lowerback 15.9891 -2.38744 -2.50952
upperback 8.35138 -4.74582 1.9315
thorax 0.298334 -3.0471 4.15483
lowerneck -4.36249 -9.28303 -1.61709
upperneck -11.8098 -12.7769 10.3122
head -2.2289 -7.03987 3.65664
rclavicle -6.58971e-014 3.22031e-014
rhumerus -405.756 21.1398 -459.252
rradius 91.5984
rwrist -16.3124
rhand -42.1008 735.623
rfingers 7.12502
rthumb -14.9922 -13.814
lclavicle -6.58971e-014 3.22031e-014
lhumerus -6.19289 -27.0063 82.661
lradius 82.882
lwrist -139.858
lhand -30.3641 7.90351
lfingers 7.12502
lthumb -3.66912 37.8517
rfemur -21.0016 -13.1789 21.0304
rtibia 57.9901
rfoot -9.19089 -15.0944
rtoes -4.19409
lfemur 17.6734 6.71343 -14.2722
ltibia 27.5654
lfoot -26.9545 -3.38977
ltoes -8.22383
33
root -7.0726 16.765 2.52146 166.116 -14.9779 -175.238
lowerback 16.2301 -2.30504 -2.57486
upperback 8.42778 -4.66558 1.90754
thorax 0.249695 -3.01568 4.16971
lowerneck -3.98356 -9.58005 -1.86145
upperneck -11.8897 -13.125 10.7239
head -2.25523 -7.2183 3.85649
rclavicle -1.16786e-014 3.97569e-015
rhumerus -405.198 21.6026 -458.929
rradius 92.3491
rwrist -15.3825
rhand -42.3564 736.229
rfingers 7.12502
rthumb -15.2384 -13.1896
lclavicle -1.16786e-014 3.97569e-015
lhumerus -4.66702 -27.6293 82.1167
lradius 83.4023
lwrist -139.589
lhand -29.9815 7.8103
lfingers 7.12502
lthumb -3.29956 37.7645
rfemur -20.6955 -12.2309 20.5575
rtibia 57.7007
rfoot -9.02856 -14.1006
rtoes -4.46788
lfemur 17.7404 6.27669 -14.3118
ltibia 27.6749
lfoot -26.811 -3.69388
ltoes -7.98143
34
root -7.05814 16.7648 2.54559 165.821 -15.6632 -175.287
lowerback 16.4301 -2.21999 -2.66761
upperback 8.50257 -4.58292 1.88207
thorax 0.22267 -2.98325 4.19453
lowerneck -3.6303 -9.86944 -1.94527
upperneck -11.9844 -13.4749 11.0301
head -2.29818 -7.40186 3.99527
rclavicle 0 8.54774e-015
rhumerus -404.619 21.988 -458.493
rradius 93.2119
rwrist -14.5022
rhand -42.5143 736.815
rfingers 7.12502
rthumb -15.3906 -12.5926
lclavicle 0 8.54774e-015
lhumerus -2.9873 -28.2754 81.4927
lradius 83.9199
lwrist -139.404
lhand -29.6172 7.75326
lfingers 7.12502
lthumb -2.94775 37.7126
rfemur -20.4079 -11.2574 20.0547
rtibia 57.3475
rfoot -8.99062 -13.0816
rtoes -4.78676
lfemur 17.8123 5.84054 -14.3986
ltibia 27.7328
lfoot -26.6799 -3.99193
ltoes -7.89383
35
root -7.04406 16.7684 2.56582 165.543 -16.3645 -175.304
lowerback 16.5878 -2.1621 -2.77568
upperback 8.57369 -4.53689 1.90065
thorax 0.222555 -2.97116 4.27641
lowerneck -3.30699 -10.1303 -2.0387
upperneck -12.0531 -13.7887 11.2642
head -2.33287 -7.5625 4.10946
rclavicle 5.80451e-014 -1.66979e-014
rhumerus -403.993 22.4947 -457.965
rradius 94.111
rwrist -13.6902
rhand -42.7315 737.266
rfingers 7.12502
rthumb -15.5998 -12.125
lclavicle 5.80451e-014 -1.66979e-014
lhumerus -1.24507 -28.8205 80.844
lradius 84.4588
lwrist -139.259
lhand -29.2671 7.82423
lfingers 7.12502
lthumb -2.60963 37.788
rfemur -20.1117 -10.2451 19.6063
rtibia 56.9193
rfoot -8.98175 -12.1071
rtoes -5.21531
lfemur 17.8826 5.4365 -14.4326
ltibia 27.761
lfoot -26.5407 -4.28768
ltoes -8.02886
36
root -7.0296 16.7711 2.58198 165.293 -17.0677 -175.325
lowerback 16.7133 -2.10536 -2.86151
upperback 8.61934 -4.48099 1.89885
thorax 0.207336 -2.94867 4.32166
lowerneck -2.90226 -10.3905 -2.0784
upperneck -12.1683 -14.1012 11.4694
head -2.4031 -7.72668 4.21583
rclavicle -2.57923e-014 -3.97569e-016
rhumerus -403.324 22.9148 -457.427
rradius 95.017
rwrist -12.8986
rhand -42.9099 737.592
rfingers 7.12502
rthumb -15.7715 -11.7859
lclavicle -2.57923e-014 -3.97569e-016
lhumerus 0.585805 -29.3816 80.1434
lradius 84.9822
lwrist -139.189
lhand -28.8789 7.8353
lfingers 7.12502
lthumb -2.2348 37.8033
rfemur -19.8357 -9.19438 19.1617
rtibia 56.4552
rfoot -8.97913 -11.1441
rtoes -5.67446
lfemur 17.9594 5.01823 -14.4797
ltibia 27.7503
lfoot -26.4187 -4.58235
ltoes -7.99168
37
root -7.01625 16.7748 2.59648 165.113 -17.7881 -175.334
lowerback 16.7661 -2.06933 -2.93402
upperback 8.6429 -4.44167 1.91588
thorax 0.208578 -2.93138 4.37734
lowerneck -2.5077 -10.6468 -2.18841
upperneck -12.2716 -14.407 11.7051
head -2.45981 -7.88539 4.34351
rclavicle -4.60187e-014 1.59028e-014
rhumerus -402.628 23.3269 -456.819
rradius 95.9594
rwrist -12.1454
rhand -43.102 737.958
rfingers 7.12502
rthumb -15.9566 -11.405
lclavicle -4.60187e-014 1.59028e-014
lhumerus 2.47011 -29.8521 79.4424
lradius 85.5197
lwrist -139.207
lhand -28.5737 7.95108
lfingers 7.12502
lthumb -1.94002 37.922
rfemur -19.63 -8.14583 18.7502
rtibia 55.9568
rfoot -8.8704 -10.206
rtoes -6.29119
lfemur 17.9613 4.5756 -14.536
ltibia 27.7171
lfoot -26.2911 -4.8784
ltoes -7.99117
38
root -7.00159 16.778 2.6053 164.939 -18.5295 -175.32
lowerback 16.7745 -2.03959 -2.98021
upperback 8.66022 -4.40235 1.93472
thorax 0.224326 -2.91195 4.41709
lowerneck -2.0976 -10.9156 -2.29533
upperneck -12.4016 -14.7314 11.9183
head -2.52816 -8.05416 4.46704
rclavicle 4.48259e-014 -3.51849e-014
rhumerus -401.901 23.6075 -456.18
rradius 96.942
rwrist -11.3053
rhand -43.2665 738.195
rfingers 7.12502
rthumb -16.115 -11.155
lclavicle 4.48259e-014 -3.51849e-014
lhumerus 4.44048 -30.3398 78.6655
lradius 86.0312
lwrist -139.187
lhand -28.2306 8.16045
lfingers 7.12502
lthumb -1.60866 38.1341
rfemur -19.4223 -7.10207 18.3791
rtibia 55.4534
rfoot -8.71017 -9.39089
rtoes -7.454
lfemur 17.977 4.11978 -14.5626
ltibia 27.6713
lfoot -26.1909 -5.19969
ltoes -7.93058
39
root -6.98631 16.7814 2.60959 164.815 -19.3214 -175.305
lowerback 16.698 -2.03145 -3.04293
upperback 8.68134 -4.38905 1.95986
thorax 0.292623 -2.90625 4.47013
lowerneck -1.71327 -11.1726 -2.40143
upperneck -12.5338 -15.0427 12.1154
head -2.59418 -8.21627 4.58455
rclavicle -2.4202e-014 -3.97569e-016
rhumerus -401.176 23.7851 -455.481
rradius 98.0512
rwrist -10.4974
rhand -43.3555 738.459
rfingers 7.12502
rthumb -16.2007 -10.8837
lclavicle -2.4202e-014 -3.97569e-016
lhumerus 6.50895 -30.7507 77.8409
lradius 86.5135
lwrist -139.166
lhand -27.9365 8.39128
lfingers 7.12502
lthumb -1.3246 38.3669
rfemur -19.2458 -6.09314 18.0141
rtibia 54.9571
rfoot -8.57766 -8.63145
rtoes -8.87756
lfemur 17.9403 3.64198 -14.5887
ltibia 27.6278
lfoot -26.09 -5.55857
ltoes -7.88904
